<?xml version="1.0" encoding="UTF-8" standalone="no"?>
<!-- Created with Inkscape (http://www.inkscape.org/) -->

<svg
   xmlns:osb="http://www.openswatchbook.org/uri/2009/osb"
   xmlns:dc="http://purl.org/dc/elements/1.1/"
   xmlns:cc="http://creativecommons.org/ns#"
   xmlns:rdf="http://www.w3.org/1999/02/22-rdf-syntax-ns#"
   xmlns:svg="http://www.w3.org/2000/svg"
   xmlns="http://www.w3.org/2000/svg"
   xmlns:xlink="http://www.w3.org/1999/xlink"
   xmlns:sodipodi="http://sodipodi.sourceforge.net/DTD/sodipodi-0.dtd"
   xmlns:inkscape="http://www.inkscape.org/namespaces/inkscape"
   width="296.87735"
   height="62.454376"
   id="svg2"
   version="1.1"
   inkscape:version="0.48.4 r9939"
   sodipodi:docname="optinomic.svg">
  <sodipodi:namedview
     id="base"
     pagecolor="#ffffff"
     bordercolor="#666666"
     borderopacity="1.0"
     inkscape:pageopacity="0.0"
     inkscape:pageshadow="2"
     inkscape:zoom="3.2326129"
     inkscape:cx="146.2526"
     inkscape:cy="28.953445"
     inkscape:document-units="px"
     inkscape:current-layer="layer1"
     showgrid="false"
     inkscape:snap-global="true"
     inkscape:object-paths="true"
     inkscape:window-width="1366"
     inkscape:window-height="716"
     inkscape:window-x="-8"
     inkscape:window-y="-8"
     inkscape:window-maximized="1"
     fit-margin-top="0"
     fit-margin-left="0"
     fit-margin-right="0"
     fit-margin-bottom="0" />
  <defs
     id="defs4">
    <linearGradient
       osb:paint="solid"
       id="linearGradient6308">
      <stop
         id="stop6310"
         offset="0"
         style="stop-color:#000000;stop-opacity:1;" />
    </linearGradient>
    <linearGradient
       osb:paint="solid"
       id="linearGradient6290">
      <stop
         id="stop6292"
         offset="0"
         style="stop-color:#ffffff;stop-opacity:0;" />
    </linearGradient>
    <marker
       style="overflow:visible"
       id="Arrow1Lstart"
       refX="0"
       refY="0"
       orient="auto"
       inkscape:stockid="Arrow1Lstart">
      <path
         transform="matrix(0.8,0,0,0.8,10,0)"
         style="fill-rule:evenodd;stroke:#000000;stroke-width:1pt"
         d="M 0,0 5,-5 -12.5,0 5,5 0,0 z"
         id="path5668"
         inkscape:connector-curvature="0" />
    </marker>
    <linearGradient
       gradientUnits="userSpaceOnUse"
       y2="402.28635"
       x2="175.75"
       y1="402.28635"
       x1="154.40169"
       id="linearGradient6294"
       xlink:href="#linearGradient6290"
       inkscape:collect="always" />
    <linearGradient
       gradientUnits="userSpaceOnUse"
       y2="402.28635"
       x2="175.75"
       y1="402.28635"
       x1="154.40169"
       id="linearGradient6312"
       xlink:href="#linearGradient6308"
       inkscape:collect="always" />
    <linearGradient
       gradientUnits="userSpaceOnUse"
       y2="402.28635"
       x2="175.75"
       y1="402.28635"
       x1="154.40169"
       id="linearGradient6294-1"
       xlink:href="#linearGradient6290-1"
       inkscape:collect="always" />
    <linearGradient
       osb:paint="solid"
       id="linearGradient6290-1">
      <stop
         id="stop6292-5"
         offset="0"
         style="stop-color:#ffffff;stop-opacity:0;" />
    </linearGradient>
    <linearGradient
       gradientUnits="userSpaceOnUse"
       y2="402.28635"
       x2="175.75"
       y1="402.28635"
       x1="154.40169"
       id="linearGradient6312-2"
       xlink:href="#linearGradient6308-7"
       inkscape:collect="always" />
    <linearGradient
       osb:paint="solid"
       id="linearGradient6308-7">
      <stop
         id="stop6310-6"
         offset="0"
         style="stop-color:#000000;stop-opacity:1;" />
    </linearGradient>
    <linearGradient
       inkscape:collect="always"
       xlink:href="#linearGradient6290-1"
       id="linearGradient6331"
       gradientUnits="userSpaceOnUse"
       x1="154.40169"
       y1="402.28635"
       x2="175.75"
       y2="402.28635" />
    <linearGradient
       inkscape:collect="always"
       xlink:href="#linearGradient6308-7"
       id="linearGradient6333"
       gradientUnits="userSpaceOnUse"
       x1="154.40169"
       y1="402.28635"
       x2="175.75"
       y2="402.28635" />
    <linearGradient
       gradientUnits="userSpaceOnUse"
       y2="402.28635"
       x2="175.75"
       y1="402.28635"
       x1="154.40169"
       id="linearGradient6294-4"
       xlink:href="#linearGradient6290-2"
       inkscape:collect="always" />
    <linearGradient
       osb:paint="solid"
       id="linearGradient6290-2">
      <stop
         id="stop6292-3"
         offset="0"
         style="stop-color:#ffffff;stop-opacity:0;" />
    </linearGradient>
    <linearGradient
       gradientUnits="userSpaceOnUse"
       y2="402.28635"
       x2="175.75"
       y1="402.28635"
       x1="154.40169"
       id="linearGradient6312-22"
       xlink:href="#linearGradient6308-1"
       inkscape:collect="always" />
    <linearGradient
       osb:paint="solid"
       id="linearGradient6308-1">
      <stop
         id="stop6310-68"
         offset="0"
         style="stop-color:#000000;stop-opacity:1;" />
    </linearGradient>
    <linearGradient
       inkscape:collect="always"
       xlink:href="#linearGradient6290-2"
       id="linearGradient6375"
       gradientUnits="userSpaceOnUse"
       x1="154.40169"
       y1="402.28635"
       x2="175.75"
       y2="402.28635" />
    <linearGradient
       inkscape:collect="always"
       xlink:href="#linearGradient6308-1"
       id="linearGradient6377"
       gradientUnits="userSpaceOnUse"
       x1="154.40169"
       y1="402.28635"
       x2="175.75"
       y2="402.28635" />
    <linearGradient
       inkscape:collect="always"
       xlink:href="#linearGradient6290-2-6"
       id="linearGradient6375-7"
       gradientUnits="userSpaceOnUse"
       x1="154.40169"
       y1="402.28635"
       x2="175.75"
       y2="402.28635" />
    <linearGradient
       osb:paint="solid"
       id="linearGradient6290-2-6">
      <stop
         id="stop6292-3-1"
         offset="0"
         style="stop-color:#ffffff;stop-opacity:0;" />
    </linearGradient>
    <linearGradient
       inkscape:collect="always"
       xlink:href="#linearGradient6308-1-9"
       id="linearGradient6377-8"
       gradientUnits="userSpaceOnUse"
       x1="154.40169"
       y1="402.28635"
       x2="175.75"
       y2="402.28635" />
    <linearGradient
       osb:paint="solid"
       id="linearGradient6308-1-9">
      <stop
         id="stop6310-68-2"
         offset="0"
         style="stop-color:#000000;stop-opacity:1;" />
    </linearGradient>
    <linearGradient
       osb:paint="solid"
       id="linearGradient6290-480">
      <stop
         id="stop6552"
         offset="0"
         style="stop-color:#ffffff;stop-opacity:0;" />
    </linearGradient>
    <linearGradient
       osb:paint="solid"
       id="linearGradient6308-893">
      <stop
         id="stop6556"
         offset="0"
         style="stop-color:#000000;stop-opacity:1;" />
    </linearGradient>
    <linearGradient
       osb:paint="solid"
       id="linearGradient6290-1-615">
      <stop
         id="stop6560"
         offset="0"
         style="stop-color:#ffffff;stop-opacity:0;" />
    </linearGradient>
    <linearGradient
       osb:paint="solid"
       id="linearGradient6308-7-86">
      <stop
         id="stop6564"
         offset="0"
         style="stop-color:#000000;stop-opacity:1;" />
    </linearGradient>
    <linearGradient
       osb:paint="solid"
       id="linearGradient6290-2-44">
      <stop
         id="stop6568"
         offset="0"
         style="stop-color:#ffffff;stop-opacity:0;" />
    </linearGradient>
    <linearGradient
       osb:paint="solid"
       id="linearGradient6308-1-151">
      <stop
         id="stop6572"
         offset="0"
         style="stop-color:#000000;stop-opacity:1;" />
    </linearGradient>
    <linearGradient
       osb:paint="solid"
       id="linearGradient6290-2-6-30">
      <stop
         id="stop6576"
         offset="0"
         style="stop-color:#ffffff;stop-opacity:0;" />
    </linearGradient>
    <linearGradient
       osb:paint="solid"
       id="linearGradient6308-1-9-422">
      <stop
         id="stop6580"
         offset="0"
         style="stop-color:#000000;stop-opacity:1;" />
    </linearGradient>
  </defs>
  <metadata
     id="metadata7">
    <rdf:RDF>
      <cc:Work
         rdf:about="">
        <dc:format>image/svg+xml</dc:format>
        <dc:type
           rdf:resource="http://purl.org/dc/dcmitype/StillImage" />
        <dc:title />
      </cc:Work>
    </rdf:RDF>
  </metadata>
  <g
     inkscape:groupmode="layer"
     id="layer2"
     inkscape:label="BG">
    <path
       sodipodi:type="arc"
       style="fill:#ffffff;fill-opacity:0.82978725;fill-rule:nonzero;stroke:none"
       id="path3120"
       sodipodi:cx="75.761444"
       sodipodi:cy="-52.197937"
       sodipodi:rx="10.101525"
       sodipodi:ry="7.0710678"
       d="m 85.862969,-52.197937 a 10.101525,7.0710678 0 1 1 -20.20305,0 10.101525,7.0710678 0 1 1 20.20305,0 z"
       transform="matrix(1.534375,0,0,2.25,-60.142385,149.59516)" />
    <path
       sodipodi:type="arc"
       style="fill:#ffffff;fill-opacity:0.82978725;fill-rule:nonzero;stroke:none"
       id="path3120-8"
       sodipodi:cx="75.761444"
       sodipodi:cy="-52.197937"
       sodipodi:rx="10.101525"
       sodipodi:ry="7.0710678"
       d="m 85.862969,-52.197937 a 10.101525,7.0710678 0 1 1 -20.20305,0 10.101525,7.0710678 0 1 1 20.20305,0 z"
       transform="matrix(1.434375,0,0,2.0486211,-92.002808,139.62665)" />
  </g>
  <g
     id="layer1"
     inkscape:groupmode="layer"
     inkscape:label="TEXT"
     transform="translate(-67.225892,-54.514948)">
    <path
       d="m 109.38911,98.278697 c 1.43236,-18.152173 -4.08676,-10.987985 -4.10149,-26.326285 l 0,0 -4.08573,4.27545 c 8.24459,21.285487 9.63552,16.601945 8.18722,22.050835 z"
       id="path3103-4"
       inkscape:connector-curvature="0"
       sodipodi:nodetypes="ccccc"
       style="font-size:40px;font-style:normal;font-variant:normal;font-weight:normal;font-stretch:normal;text-align:start;line-height:125%;letter-spacing:0px;word-spacing:0px;writing-mode:lr-tb;text-anchor:start;fill:#ffffff;fill-opacity:0.83137255;stroke:none;font-family:Levenim MT;-inkscape-font-specification:Levenim MT" />
    <g
       transform="translate(-2.1428572,-15)"
       id="text2985"
       style="font-size:40px;font-style:normal;font-weight:normal;line-height:125%;letter-spacing:0px;word-spacing:0px;fill:#000000;fill-opacity:1;stroke:none;font-family:Sans">
      <g
         transform="matrix(1.5707346,0,0,1.5973717,58.226351,226.71527)"
         style="font-variant:normal;font-stretch:normal;text-align:start;writing-mode:lr-tb;text-anchor:start;fill:#000000;font-family:Levenim MT;-inkscape-font-specification:Levenim MT"
         id="flowRoot3092">
        <path
           d="m 29.222656,-78.002163 c -2.4e-5,3.125008 -1.061221,5.758468 -3.183594,7.900391 -2.122414,2.141927 -4.746109,3.21289 -7.871093,3.21289 -3.12501,0 -5.751961,-1.067707 -7.88086,-3.203125 -2.128909,-2.135411 -3.193361,-4.772128 -3.193359,-7.910156 -2e-6,-2.942695 0.9765595,-5.494775 2.929688,-7.65625 2.14843,-2.382792 4.863271,-3.574197 8.144531,-3.574219 3.268213,2.2e-5 5.976543,1.184917 8.125,3.554688 1.953102,2.161474 2.929663,4.720065 2.929687,7.675781 z m -2.773437,0.05859 c -2.2e-5,-2.343737 -0.797547,-4.36522 -2.392578,-6.064453 -1.59507,-1.699201 -3.557959,-2.548809 -5.888672,-2.548828 -2.33074,1.9e-5 -4.293629,0.849627 -5.888672,2.548828 -1.595058,1.699233 -2.3925831,3.720716 -2.3925782,6.064453 -4.9e-6,1.510426 0.3580672,2.923185 1.0742192,4.238281 0.74218,1.354172 1.751294,2.395837 3.027343,3.125 1.276032,0.729169 2.669259,1.093752 4.179688,1.09375 3.22915,2e-6 5.618471,-1.386715 7.167968,-4.160156 0.742167,-1.328118 1.11326,-2.760408 1.113282,-4.296875 z"
           id="path3101"
           style="fill:#000000" />
        <path
           d="m 53.351494,-78.119379 c -2.5e-5,3.098966 -1.041691,5.735682 -3.125,7.910156 -2.109395,2.213542 -4.700538,3.320312 -7.773438,3.320312 -3.372407,0 -6.210945,-1.399738 -8.515625,-4.199218 l -0.113687,12.208316 -2.48747,-0.11179 0,-28.464484 0,0 2.601157,2.676551 c 2.161451,-2.968729 4.973948,-4.453103 8.4375,-4.453125 3.059879,2.2e-5 5.654277,1.087261 7.783203,3.261719 2.128882,2.174496 3.193335,4.791681 3.19336,7.851563 z m -2.753907,0.09766 c -2.2e-5,-1.510405 -0.377626,-2.942695 -1.132812,-4.296875 -0.755229,-1.354151 -1.780619,-2.405582 -3.076172,-3.154297 -1.29559,-0.748679 -2.705094,-1.123028 -4.228516,-1.123047 -2.421886,1.9e-5 -4.430348,0.833352 -6.02539,2.5 -1.595059,1.666682 -2.392584,3.717461 -2.392578,6.152344 -6e-6,3.385424 1.399732,5.85938 4.199218,7.421875 1.341135,0.755211 2.760405,1.132814 4.257813,1.132812 1.510401,2e-6 2.91665,-0.390622 4.21875,-1.171875 1.263001,-0.768225 2.27537,-1.829422 3.037109,-3.183593 0.761697,-1.354159 1.142556,-2.779939 1.142578,-4.277344 z"
           id="path3103"
           inkscape:connector-curvature="0"
           sodipodi:nodetypes="ccscccccccccccccsscsccc"
           style="fill:#000000" />
        <text
           xml:space="preserve"
           style="font-size:40px;font-style:normal;font-variant:normal;font-weight:normal;font-stretch:normal;text-align:start;line-height:125%;letter-spacing:0px;word-spacing:0px;writing-mode:lr-tb;text-anchor:start;fill:#000000;fill-opacity:1;stroke:none;font-family:DIN;-inkscape-font-specification:DIN"
           x="80.812202"
           y="55.383308"
           id="text3066"
           sodipodi:linespacing="125%"
           transform="matrix(0.63664479,0,0,0.62602837,7.0937498,-98.411861)"><tspan
             sodipodi:role="line"
             id="tspan3068"
             x="80.812202"
             y="55.383308" /></text>
        <g
           transform="scale(1.0084435,0.99162719)"
           style="font-size:38.60369872999999800px;font-style:normal;font-weight:normal;line-height:125%;letter-spacing:0px;word-spacing:0px;fill:#000000;fill-opacity:1;stroke:none;font-family:DIN;-inkscape-font-specification:DIN"
           id="text3070" />
      </g>
    </g>
    <g
       style="font-size:40px;font-style:normal;font-variant:normal;font-weight:normal;font-stretch:normal;text-align:start;line-height:125%;letter-spacing:0px;word-spacing:0px;writing-mode:lr-tb;text-anchor:start;fill:#000000;fill-opacity:1;stroke:none;font-family:DIN;-inkscape-font-specification:DIN"
       id="text3091"
       transform="translate(-4.2728432,-58.841386)">
      <path
         d="m 177.43607,118.55626 c -1e-5,1.00004 -0.35417,1.849 -1.0625,2.54687 -0.70834,0.69796 -1.5625,1.04692 -2.5625,1.04688 -0.97917,4e-5 -1.82292,-0.35413 -2.53125,-1.0625 -0.70833,-0.70829 -1.0625,-1.55204 -1.0625,-2.53125 0,-0.99996 0.34896,-1.85412 1.04688,-2.5625 0.69791,-0.70829 1.54687,-1.06245 2.54687,-1.0625 1,5e-5 1.85416,0.35421 2.5625,1.0625 0.70833,0.70838 1.06249,1.56254 1.0625,2.5625 z m -1.40625,44.375 -4.40625,0 0,-34 4.40625,0 z"
         style="font-size:64px;font-family:Levenim MT;-inkscape-font-specification:Levenim MT"
         id="path3102"
         inkscape:connector-curvature="0" />
      <path
         d="m 214.81107,162.93126 -4.34375,0 0,-16.21875 c -3e-5,-3.83331 -0.16669,-6.44789 -0.5,-7.84375 -1.08336,-4.52081 -3.93752,-6.78122 -8.5625,-6.78125 -2.64585,3e-5 -5.01564,0.86982 -7.10937,2.60937 -2.09376,1.73961 -3.47397,3.91149 -4.14063,6.51563 -0.41667,1.64585 -0.62501,4.72918 -0.625,9.25 l 0,12.46875 -4.375,0 0,-34 4.375,0 0,6.09375 c 3.47916,-4.6458 7.72915,-6.96872 12.75,-6.96875 2.47915,3e-5 4.71352,0.63024 6.70313,1.89062 1.98955,1.26045 3.4583,3.00003 4.40625,5.21875 0.94788,2.21878 1.42184,5.64065 1.42187,10.26563 z"
         style="font-size:64px;font-family:Levenim MT;-inkscape-font-specification:Levenim MT"
         id="path3104"
         inkscape:connector-curvature="0" />
      <path
         d="m 255.93607,146.02501 c -4e-5,5.00001 -1.69795,9.21355 -5.09375,12.64062 -3.39586,3.42709 -7.59377,5.14063 -12.59375,5.14063 -5.00001,0 -9.20313,-1.70833 -12.60937,-5.125 -3.40626,-3.41666 -5.10938,-7.63541 -5.10938,-12.65625 0,-4.70831 1.5625,-8.79164 4.6875,-12.25 3.43749,-3.81247 7.78124,-5.71872 13.03125,-5.71875 5.22914,3e-5 9.56247,1.89587 13,5.6875 3.12497,3.45836 4.68746,7.5521 4.6875,12.28125 z m -4.4375,0.0937 c -3e-5,-3.74998 -1.27607,-6.98435 -3.82812,-9.70313 -2.55211,-2.71872 -5.69273,-4.07809 -9.42188,-4.07812 -3.72918,3e-5 -6.8698,1.3594 -9.42187,4.07812 -2.55209,2.71878 -3.82813,5.95315 -3.82813,9.70313 0,2.41668 0.57291,4.67709 1.71875,6.78125 1.18749,2.16667 2.80207,3.83334 4.84375,5 2.04165,1.16667 4.27082,1.75 6.6875,1.75 5.16664,0 8.98956,-2.21875 11.46875,-6.65625 1.18747,-2.12499 1.78122,-4.41665 1.78125,-6.875 z"
         style="font-size:64px;font-family:Levenim MT;-inkscape-font-specification:Levenim MT"
         id="path3106"
         inkscape:connector-curvature="0" />
      <path
         d="m 312.84232,162.93126 -4.46875,0 0,-18.5625 c -5e-5,-2.85415 -0.12505,-4.84373 -0.375,-5.96875 -0.45838,-2.16664 -1.47921,-3.78122 -3.0625,-4.84375 -1.27088,-0.8333 -2.78129,-1.24997 -4.53125,-1.25 -2.1667,3e-5 -4.12504,0.63024 -5.875,1.89062 -1.75003,1.26045 -3.02607,2.92711 -3.82812,5 -0.80212,2.07294 -1.20316,5.5469 -1.20313,10.42188 l 0,13.3125 -4.34375,0 0,-17.40625 c -2e-5,-3.18748 -0.10419,-5.35414 -0.3125,-6.5 -0.43752,-2.45831 -1.47919,-4.26039 -3.125,-5.40625 -1.27085,-0.87497 -2.78127,-1.31247 -4.53125,-1.3125 -2.10418,3e-5 -4.04168,0.63545 -5.8125,1.90625 -1.68751,1.22919 -2.93751,2.84378 -3.75,4.84375 -0.85417,2.06252 -1.28126,5.21877 -1.28125,9.46875 l 0,14.40625 -4.34375,0 0,-34 4.34375,0 0,5.875 c 3.16666,-4.49997 7.05207,-6.74997 11.65625,-6.75 3.47915,3e-5 6.24998,1.17712 8.3125,3.53125 0.93747,1.08336 1.74997,2.62503 2.4375,4.625 2.97914,-5.43747 7.15621,-8.15622 12.53125,-8.15625 4.97912,3e-5 8.39578,2.25003 10.25,6.75 0.87495,2.12503 1.31245,5.31252 1.3125,9.5625 z"
         style="font-size:64px;font-family:Levenim MT;-inkscape-font-specification:Levenim MT"
         id="path3108"
         inkscape:connector-curvature="0" />
      <path
         d="m 327.18607,118.55626 c -10e-6,1.00004 -0.35417,1.849 -1.0625,2.54687 -0.70834,0.69796 -1.5625,1.04692 -2.5625,1.04688 -0.97917,4e-5 -1.82292,-0.35413 -2.53125,-1.0625 -0.70833,-0.70829 -1.0625,-1.55204 -1.0625,-2.53125 0,-0.99996 0.34896,-1.85412 1.04688,-2.5625 0.69791,-0.70829 1.54687,-1.06245 2.54687,-1.0625 1,5e-5 1.85416,0.35421 2.5625,1.0625 0.70833,0.70838 1.06249,1.56254 1.0625,2.5625 z m -1.40625,44.375 -4.40625,0 0,-34 4.40625,0 z"
         style="font-size:64px;font-family:Levenim MT;-inkscape-font-specification:Levenim MT"
         id="path3110"
         inkscape:connector-curvature="0" />
    </g>
    <path
       d="m 360.16747,97.45949 c -3.11117,5.125 -7.93912,7.6875 -14.48387,7.6875 -4.72363,0 -8.71689,-1.625 -11.97978,-4.875 -3.35775,-3.35416 -5.03663,-7.59374 -5.03663,-12.71875 0,-3.31248 0.75407,-6.37498 2.26222,-9.1875 1.50814,-2.81247 3.58064,-5.01039 6.21753,-6.59375 2.63687,-1.5833 5.58675,-2.37497 8.84967,-2.375 4.2114,3e-5 7.80628,1.23962 10.78465,3.71875 1.32789,1.1042 2.45663,2.51044 3.38621,4.21875 l -3.15857,2.15625 c -2.73176,-3.97914 -6.45942,-5.96872 -11.18302,-5.96875 -3.6613,3e-5 -6.75346,1.27086 -9.27651,3.8125 -2.57997,2.62502 -3.86995,5.9271 -3.86995,9.90625 0,2.50001 0.57859,4.83855 1.73579,7.01562 1.15719,2.1771 2.73172,3.8698 4.72362,5.07813 1.99187,1.20834 4.23037,1.8125 6.7155,1.8125 4.55287,0 8.27106,-1.98958 11.15457,-5.96875 z"
       style="font-size:64px;font-style:normal;font-variant:normal;font-weight:normal;font-stretch:normal;text-align:start;line-height:125%;letter-spacing:0px;word-spacing:0px;writing-mode:lr-tb;text-anchor:start;fill:#000000;fill-opacity:1;stroke:none;font-family:Levenim MT;-inkscape-font-specification:Levenim MT"
       id="path3112-1"
       inkscape:connector-curvature="0" />
  </g>
  <g
     inkscape:groupmode="layer"
     id="layer4"
     inkscape:label="Layer" />
  <g
     inkscape:groupmode="layer"
     id="layer3"
     inkscape:label="Text_Deco"
     style="display:inline">
    <rect
       style="fill:#ffff00;fill-opacity:0;fill-rule:nonzero;stroke:none"
       id="rect3143"
       width="14.582532"
       height="3.707"
       x="61.536053"
       y="55.457714" />
    <g
       transform="matrix(1.5811622,0,0,1.7443553,-111.8917,139.56243)"
       style="font-size:40px;font-style:normal;font-variant:normal;font-weight:normal;font-stretch:normal;text-align:start;line-height:125%;letter-spacing:0px;word-spacing:0px;writing-mode:lr-tb;text-anchor:start;fill:#000000;fill-opacity:1;stroke:none;font-family:DIN;-inkscape-font-specification:DIN"
       id="flowRoot3923">
      <path
         d="m 128.581,-51.655029 0,-2.479968 -1.51998,0 c -0.91667,-0.0075 -1.59333,-0.262494 -2.02998,-0.764991 -0.43667,-0.50249 -0.65333,-1.20748 -0.64999,-2.114971 l 0,-11.999846 4.19995,0 0,-2.199972 -4.19995,0 0,-7.852815 -2.81094,-0.08573 -0.069,7.938544 -2.93171,0 0.11293,2.199972 2.81878,0 0,12.079844 c -1e-5,1.497484 0.41999,2.742467 1.25998,3.734951 0.83998,0.992488 2.09997,1.507481 3.77995,1.544981 z"
         id="path3932"
         inkscape:connector-curvature="0"
         sodipodi:nodetypes="cccccccccccccccsscc" />
    </g>
  </g>
</svg>
