<?xml version="1.0" encoding="UTF-8" standalone="no"?>
<!-- Created with Inkscape (http://www.inkscape.org/) -->

<svg
   xmlns:osb="http://www.openswatchbook.org/uri/2009/osb"
   xmlns:dc="http://purl.org/dc/elements/1.1/"
   xmlns:cc="http://creativecommons.org/ns#"
   xmlns:rdf="http://www.w3.org/1999/02/22-rdf-syntax-ns#"
   xmlns:svg="http://www.w3.org/2000/svg"
   xmlns="http://www.w3.org/2000/svg"
   xmlns:xlink="http://www.w3.org/1999/xlink"
   xmlns:sodipodi="http://sodipodi.sourceforge.net/DTD/sodipodi-0.dtd"
   xmlns:inkscape="http://www.inkscape.org/namespaces/inkscape"
   width="296.87735"
   height="62.454376"
   id="svg2"
   version="1.1"
   inkscape:version="0.48.4 r9939"
   sodipodi:docname="optinomix_v2.svg">
  <sodipodi:namedview
     id="base"
     pagecolor="#ffffff"
     bordercolor="#666666"
     borderopacity="1.0"
     inkscape:pageopacity="0.0"
     inkscape:pageshadow="2"
     inkscape:zoom="5.6"
     inkscape:cx="195.57218"
     inkscape:cy="6.1354568"
     inkscape:document-units="px"
     inkscape:current-layer="layer1"
     showgrid="false"
     inkscape:snap-global="true"
     inkscape:object-paths="true"
     inkscape:window-width="1280"
     inkscape:window-height="1002"
     inkscape:window-x="78"
     inkscape:window-y="-8"
     inkscape:window-maximized="1"
     fit-margin-top="0"
     fit-margin-left="0"
     fit-margin-right="0"
     fit-margin-bottom="0" />
  <defs
     id="defs4">
    <linearGradient
       osb:paint="solid"
       id="linearGradient6308">
      <stop
         id="stop6310"
         offset="0"
         style="stop-color:#000000;stop-opacity:1;" />
    </linearGradient>
    <linearGradient
       osb:paint="solid"
       id="linearGradient6290">
      <stop
         id="stop6292"
         offset="0"
         style="stop-color:#ffffff;stop-opacity:0;" />
    </linearGradient>
    <marker
       style="overflow:visible"
       id="Arrow1Lstart"
       refX="0"
       refY="0"
       orient="auto"
       inkscape:stockid="Arrow1Lstart">
      <path
         transform="matrix(0.8,0,0,0.8,10,0)"
         style="fill-rule:evenodd;stroke:#000000;stroke-width:1pt"
         d="M 0,0 5,-5 -12.5,0 5,5 0,0 z"
         id="path5668"
         inkscape:connector-curvature="0" />
    </marker>
    <linearGradient
       gradientUnits="userSpaceOnUse"
       y2="402.28635"
       x2="175.75"
       y1="402.28635"
       x1="154.40169"
       id="linearGradient6294"
       xlink:href="#linearGradient6290"
       inkscape:collect="always" />
    <linearGradient
       gradientUnits="userSpaceOnUse"
       y2="402.28635"
       x2="175.75"
       y1="402.28635"
       x1="154.40169"
       id="linearGradient6312"
       xlink:href="#linearGradient6308"
       inkscape:collect="always" />
    <linearGradient
       gradientUnits="userSpaceOnUse"
       y2="402.28635"
       x2="175.75"
       y1="402.28635"
       x1="154.40169"
       id="linearGradient6294-1"
       xlink:href="#linearGradient6290-1"
       inkscape:collect="always" />
    <linearGradient
       osb:paint="solid"
       id="linearGradient6290-1">
      <stop
         id="stop6292-5"
         offset="0"
         style="stop-color:#ffffff;stop-opacity:0;" />
    </linearGradient>
    <linearGradient
       gradientUnits="userSpaceOnUse"
       y2="402.28635"
       x2="175.75"
       y1="402.28635"
       x1="154.40169"
       id="linearGradient6312-2"
       xlink:href="#linearGradient6308-7"
       inkscape:collect="always" />
    <linearGradient
       osb:paint="solid"
       id="linearGradient6308-7">
      <stop
         id="stop6310-6"
         offset="0"
         style="stop-color:#000000;stop-opacity:1;" />
    </linearGradient>
    <linearGradient
       inkscape:collect="always"
       xlink:href="#linearGradient6290-1"
       id="linearGradient6331"
       gradientUnits="userSpaceOnUse"
       x1="154.40169"
       y1="402.28635"
       x2="175.75"
       y2="402.28635" />
    <linearGradient
       inkscape:collect="always"
       xlink:href="#linearGradient6308-7"
       id="linearGradient6333"
       gradientUnits="userSpaceOnUse"
       x1="154.40169"
       y1="402.28635"
       x2="175.75"
       y2="402.28635" />
    <linearGradient
       gradientUnits="userSpaceOnUse"
       y2="402.28635"
       x2="175.75"
       y1="402.28635"
       x1="154.40169"
       id="linearGradient6294-4"
       xlink:href="#linearGradient6290-2"
       inkscape:collect="always" />
    <linearGradient
       osb:paint="solid"
       id="linearGradient6290-2">
      <stop
         id="stop6292-3"
         offset="0"
         style="stop-color:#ffffff;stop-opacity:0;" />
    </linearGradient>
    <linearGradient
       gradientUnits="userSpaceOnUse"
       y2="402.28635"
       x2="175.75"
       y1="402.28635"
       x1="154.40169"
       id="linearGradient6312-22"
       xlink:href="#linearGradient6308-1"
       inkscape:collect="always" />
    <linearGradient
       osb:paint="solid"
       id="linearGradient6308-1">
      <stop
         id="stop6310-68"
         offset="0"
         style="stop-color:#000000;stop-opacity:1;" />
    </linearGradient>
    <linearGradient
       inkscape:collect="always"
       xlink:href="#linearGradient6290-2"
       id="linearGradient6375"
       gradientUnits="userSpaceOnUse"
       x1="154.40169"
       y1="402.28635"
       x2="175.75"
       y2="402.28635" />
    <linearGradient
       inkscape:collect="always"
       xlink:href="#linearGradient6308-1"
       id="linearGradient6377"
       gradientUnits="userSpaceOnUse"
       x1="154.40169"
       y1="402.28635"
       x2="175.75"
       y2="402.28635" />
    <linearGradient
       inkscape:collect="always"
       xlink:href="#linearGradient6290-2-6"
       id="linearGradient6375-7"
       gradientUnits="userSpaceOnUse"
       x1="154.40169"
       y1="402.28635"
       x2="175.75"
       y2="402.28635" />
    <linearGradient
       osb:paint="solid"
       id="linearGradient6290-2-6">
      <stop
         id="stop6292-3-1"
         offset="0"
         style="stop-color:#ffffff;stop-opacity:0;" />
    </linearGradient>
    <linearGradient
       inkscape:collect="always"
       xlink:href="#linearGradient6308-1-9"
       id="linearGradient6377-8"
       gradientUnits="userSpaceOnUse"
       x1="154.40169"
       y1="402.28635"
       x2="175.75"
       y2="402.28635" />
    <linearGradient
       osb:paint="solid"
       id="linearGradient6308-1-9">
      <stop
         id="stop6310-68-2"
         offset="0"
         style="stop-color:#000000;stop-opacity:1;" />
    </linearGradient>
    <linearGradient
       osb:paint="solid"
       id="linearGradient6290-480">
      <stop
         id="stop6552"
         offset="0"
         style="stop-color:#ffffff;stop-opacity:0;" />
    </linearGradient>
    <linearGradient
       osb:paint="solid"
       id="linearGradient6308-893">
      <stop
         id="stop6556"
         offset="0"
         style="stop-color:#000000;stop-opacity:1;" />
    </linearGradient>
    <linearGradient
       osb:paint="solid"
       id="linearGradient6290-1-615">
      <stop
         id="stop6560"
         offset="0"
         style="stop-color:#ffffff;stop-opacity:0;" />
    </linearGradient>
    <linearGradient
       osb:paint="solid"
       id="linearGradient6308-7-86">
      <stop
         id="stop6564"
         offset="0"
         style="stop-color:#000000;stop-opacity:1;" />
    </linearGradient>
    <linearGradient
       osb:paint="solid"
       id="linearGradient6290-2-44">
      <stop
         id="stop6568"
         offset="0"
         style="stop-color:#ffffff;stop-opacity:0;" />
    </linearGradient>
    <linearGradient
       osb:paint="solid"
       id="linearGradient6308-1-151">
      <stop
         id="stop6572"
         offset="0"
         style="stop-color:#000000;stop-opacity:1;" />
    </linearGradient>
    <linearGradient
       osb:paint="solid"
       id="linearGradient6290-2-6-30">
      <stop
         id="stop6576"
         offset="0"
         style="stop-color:#ffffff;stop-opacity:0;" />
    </linearGradient>
    <linearGradient
       osb:paint="solid"
       id="linearGradient6308-1-9-422">
      <stop
         id="stop6580"
         offset="0"
         style="stop-color:#000000;stop-opacity:1;" />
    </linearGradient>
  </defs>
  <metadata
     id="metadata7">
    <rdf:RDF>
      <cc:Work
         rdf:about="">
        <dc:format>image/svg+xml</dc:format>
        <dc:type
           rdf:resource="http://purl.org/dc/dcmitype/StillImage" />
        <dc:title />
      </cc:Work>
    </rdf:RDF>
  </metadata>
  <g
     inkscape:groupmode="layer"
     id="layer2"
     inkscape:label="BG">
    <path
       sodipodi:type="arc"
       style="fill:#ffffff;fill-opacity:0.82978725;fill-rule:nonzero;stroke:none"
       id="path3120"
       sodipodi:cx="75.761444"
       sodipodi:cy="-52.197937"
       sodipodi:rx="10.101525"
       sodipodi:ry="7.0710678"
       d="m 85.862969,-52.197937 a 10.101525,7.0710678 0 1 1 -20.20305,0 10.101525,7.0710678 0 1 1 20.20305,0 z"
       transform="matrix(1.534375,0,0,2.25,-60.142385,149.59516)" />
    <path
       sodipodi:type="arc"
       style="fill:#ffffff;fill-opacity:0.82978725;fill-rule:nonzero;stroke:none"
       id="path3120-8"
       sodipodi:cx="75.761444"
       sodipodi:cy="-52.197937"
       sodipodi:rx="10.101525"
       sodipodi:ry="7.0710678"
       d="m 85.862969,-52.197937 a 10.101525,7.0710678 0 1 1 -20.20305,0 10.101525,7.0710678 0 1 1 20.20305,0 z"
       transform="matrix(1.434375,0,0,2.0486211,-92.002808,139.62665)" />
  </g>
  <g
     id="layer1"
     inkscape:groupmode="layer"
     inkscape:label="TEXT"
     transform="translate(-67.225892,-54.514948)">
    <g
       transform="translate(-2.1428572,-15)"
       id="text2985"
       style="font-size:40px;font-style:normal;font-weight:normal;line-height:125%;letter-spacing:0px;word-spacing:0px;fill:#000000;fill-opacity:1;stroke:none;font-family:Sans">
      <g
         transform="matrix(1.5707346,0,0,1.5973717,58.226351,226.71527)"
         style="font-variant:normal;font-stretch:normal;text-align:start;writing-mode:lr-tb;text-anchor:start;fill:#000000;font-family:Levenim MT;-inkscape-font-specification:Levenim MT"
         id="flowRoot3092">
        <path
           d="m 29.222656,-78.002163 c -2.4e-5,3.125008 -1.061221,5.758468 -3.183594,7.900391 -2.122414,2.141927 -4.746109,3.21289 -7.871093,3.21289 -3.12501,0 -5.751961,-1.067707 -7.88086,-3.203125 -2.128909,-2.135411 -3.193361,-4.772128 -3.193359,-7.910156 -2e-6,-2.942695 0.9765595,-5.494775 2.929688,-7.65625 2.14843,-2.382792 4.863271,-3.574197 8.144531,-3.574219 3.268213,2.2e-5 5.976543,1.184917 8.125,3.554688 1.953102,2.161474 2.929663,4.720065 2.929687,7.675781 z m -2.773437,0.05859 c -2.2e-5,-2.343737 -0.797547,-4.36522 -2.392578,-6.064453 -1.59507,-1.699201 -3.557959,-2.548809 -5.888672,-2.548828 -2.33074,1.9e-5 -4.293629,0.849627 -5.888672,2.548828 -1.595058,1.699233 -2.3925831,3.720716 -2.3925782,6.064453 -4.9e-6,1.510426 0.3580672,2.923185 1.0742192,4.238281 0.74218,1.354172 1.751294,2.395837 3.027343,3.125 1.276032,0.729169 2.669259,1.093752 4.179688,1.09375 3.22915,2e-6 5.618471,-1.386715 7.167968,-4.160156 0.742167,-1.328118 1.11326,-2.760408 1.113282,-4.296875 z"
           style=""
           id="path3101" />
        <path
           d="m 53.351494,-78.119379 c -2.5e-5,3.098966 -1.041691,5.735682 -3.125,7.910156 -2.109395,2.213542 -4.700538,3.320312 -7.773438,3.320312 -3.372407,0 -6.210945,-1.399738 -8.515625,-4.199218 l -0.113687,12.208316 -2.48747,-0.11179 0,-28.464484 0,0 2.601157,2.676551 c 2.161451,-2.968729 4.973948,-4.453103 8.4375,-4.453125 3.059879,2.2e-5 5.654277,1.087261 7.783203,3.261719 2.128882,2.174496 3.193335,4.791681 3.19336,7.851563 z m -2.753907,0.09766 c -2.2e-5,-1.510405 -0.377626,-2.942695 -1.132812,-4.296875 -0.755229,-1.354151 -1.780619,-2.405582 -3.076172,-3.154297 -1.29559,-0.748679 -2.705094,-1.123028 -4.228516,-1.123047 -2.421886,1.9e-5 -4.430348,0.833352 -6.02539,2.5 -1.595059,1.666682 -2.392584,3.717461 -2.392578,6.152344 -6e-6,3.385424 1.399732,5.85938 4.199218,7.421875 1.341135,0.755211 2.760405,1.132814 4.257813,1.132812 1.510401,2e-6 2.91665,-0.390622 4.21875,-1.171875 1.263001,-0.768225 2.27537,-1.829422 3.037109,-3.183593 0.761697,-1.354159 1.142556,-2.779939 1.142578,-4.277344 z"
           id="path3103"
           inkscape:connector-curvature="0"
           sodipodi:nodetypes="ccscccccccccccccsscsccc" />
        <path
           d="m 73.702399,-94.798989 c -0.138682,1.27957 0.250315,-0.0056 -0.973184,0.01076 -1.286496,-0.148638 -1.957942,1.414792 -1.974428,0.226764 1.668903,-0.088 0.03353,0.0024 0.469725,-0.440357 0.436195,-0.442679 0.795254,-0.303707 1.420257,-0.303737 1.309254,0.144884 1.041274,-0.695763 1.05763,0.506568 z m 0.052,27.363232 -2.753906,0 0,-21.25 2.753906,0 z"
           id="path3107"
           inkscape:connector-curvature="0"
           sodipodi:nodetypes="ccccccccccc" />
        <path
           d="m 97.924382,-67.435757 -2.714848,0 0,-10.136718 c -1.8e-5,-2.395821 -0.104185,-4.029934 -0.3125,-4.902344 -0.677101,-2.825503 -2.460953,-4.238262 -5.351562,-4.238281 -1.653657,1.9e-5 -3.134776,0.543638 -4.443359,1.630859 -1.308602,1.087256 -2.171231,2.444677 -2.587891,4.072266 -0.260423,1.028658 -0.390631,2.955739 -0.390625,5.78125 l 0,7.792968 -2.734375,0 0,-21.25 2.734375,0 0,3.808594 c 2.174471,-2.903625 4.830719,-4.355447 7.96875,-4.355469 1.549464,2.2e-5 2.945947,0.393902 4.189453,1.181641 1.243471,0.78778 2.161442,1.875019 2.753902,3.261719 0.59243,1.386734 0.88865,3.525404 0.88868,6.416015 z"
           id="path3109"
           inkscape:connector-curvature="0" />
        <path
           d="m 124.36842,-78.002163 c -2e-5,3.125008 -1.06122,5.758468 -3.18359,7.900391 -2.12242,2.141927 -4.74611,3.21289 -7.8711,3.21289 -3.12501,0 -5.75196,-1.067707 -7.88086,-3.203125 -2.1289,-2.135411 -3.19336,-4.772128 -3.19335,-7.910156 -1e-5,-2.942695 0.97655,-5.494775 2.92968,-7.65625 2.14843,-2.382792 4.86327,-3.574197 8.14453,-3.574219 3.26822,2.2e-5 5.97655,1.184917 8.125,3.554688 1.95311,2.161474 2.92967,4.720065 2.92969,7.675781 z m -2.77344,0.05859 c -2e-5,-2.343737 -0.79754,-4.36522 -2.39257,-6.064453 -1.59507,-1.699201 -3.55796,-2.548809 -5.88868,-2.548828 -2.33074,1.9e-5 -4.29362,0.849627 -5.88867,2.548828 -1.59506,1.699233 -2.39258,3.720716 -2.39258,6.064453 0,1.510426 0.35807,2.923185 1.07422,4.238281 0.74218,1.354172 1.7513,2.395837 3.02735,3.125 1.27603,0.729169 2.66926,1.093752 4.17968,1.09375 3.22915,2e-6 5.61847,-1.386715 7.16797,-4.160156 0.74217,-1.328118 1.11326,-2.760408 1.11328,-4.296875 z"
           id="path3111"
           inkscape:connector-curvature="0" />
        <path
           d="m 161.1069,-67.435757 -2.79297,0 0,-11.601562 c -3e-5,-1.783841 -0.0782,-3.027329 -0.23438,-3.730469 -0.28649,-1.35415 -0.92451,-2.363263 -1.91406,-3.027344 -0.7943,-0.520814 -1.73831,-0.78123 -2.83203,-0.78125 -1.35419,2e-5 -2.57815,0.393899 -3.67188,1.181641 -1.09377,0.787778 -1.89129,1.829443 -2.39257,3.125 -0.50133,1.295586 -0.75198,3.466808 -0.75196,6.513672 l 0,8.320312 -2.71484,0 0,-10.878906 c -2e-5,-1.992175 -0.0651,-3.34634 -0.19531,-4.0625 -0.27346,-1.536442 -0.9245,-2.662743 -1.95313,-3.378906 -0.79428,-0.546856 -1.73829,-0.820293 -2.83203,-0.820313 -1.31511,2e-5 -2.52605,0.397155 -3.63281,1.191407 -1.0547,0.768246 -1.83595,1.77736 -2.34375,3.027343 -0.53386,1.289077 -0.80079,3.261731 -0.80078,5.917969 l 0,9.003906 -2.71485,0 0,-21.25 2.71485,0 0,3.671875 c 1.97916,-2.812479 4.40754,-4.218728 7.28515,-4.21875 2.17447,2.2e-5 3.90624,0.735699 5.19532,2.207032 0.58591,0.677102 1.09373,1.640643 1.52343,2.890625 1.86196,-3.398418 4.47264,-5.097635 7.83203,-5.097657 3.11195,2.2e-5 5.24737,1.406271 6.40625,4.21875 0.54685,1.328142 0.82028,3.320327 0.82032,5.976563 z"
           id="path3113"
           inkscape:connector-curvature="0" />
        <path
           d="m 169.18778,-94.779377 c -0.25158,0.106568 -0.75375,-0.737604 -1.19645,-0.301433 -0.44271,0.436224 0.74171,0.272896 0.11672,0.27287 -0.61199,2.6e-5 -0.43626,-0.911955 -0.99438,0.0031 -0.44271,-0.442682 1.97321,-0.0653 0.45699,-0.365373 -0.62308,-0.123312 -0.61313,0.438707 -0.17696,-0.004 0.45959,0.29862 -0.24342,-0.151481 0.38159,-0.151511 0.62499,3e-5 0.57521,-0.194384 1.01792,0.248295 0.4427,0.442737 -0.15939,0.489438 0.39454,0.298037 z m 0.083,27.34362 -2.7539,0 0,-21.25 2.7539,0 z"
           id="path3115"
           inkscape:connector-curvature="0"
           sodipodi:nodetypes="ccccscccccccccc" />
        <path
           d="m 192.55577,-67.435757 -3.32031,0 -6.50391,-8.925781 -6.40625,8.925781 -3.26171,0 8.04687,-11.152343 -7.28516,-10.097657 3.28125,0 5.625,7.871094 5.625,-7.871094 3.28125,0 -7.26562,10.097657 z"
           id="path3117"
           inkscape:connector-curvature="0" />
      </g>
    </g>
  </g>
  <g
     inkscape:groupmode="layer"
     id="layer4"
     inkscape:label="Layer" />
  <g
     inkscape:groupmode="layer"
     id="layer3"
     inkscape:label="Text_Deco"
     style="display:inline">
    <rect
       style="fill:#ffff00;fill-opacity:0;fill-rule:nonzero;stroke:none"
       id="rect3143"
       width="14.582532"
       height="3.707"
       x="61.536053"
       y="55.457714" />
    <g
       transform="matrix(1.5811622,0,0,1.7443553,-111.8917,139.56243)"
       style="font-size:40px;font-style:normal;font-variant:normal;font-weight:normal;font-stretch:normal;text-align:start;line-height:125%;letter-spacing:0px;word-spacing:0px;writing-mode:lr-tb;text-anchor:start;fill:#000000;fill-opacity:1;stroke:none;font-family:DIN;-inkscape-font-specification:DIN"
       id="flowRoot3923">
      <path
         d="m 128.581,-51.655029 0,-2.479968 -1.51998,0 c -0.91667,-0.0075 -1.59333,-0.262494 -2.02998,-0.764991 -0.43667,-0.50249 -0.65333,-1.20748 -0.64999,-2.114971 l 0,-11.999846 4.19995,0 0,-2.199972 -4.19995,0 0,-6.15992 -2.88011,0.102371 1.5e-4,6.057549 -2.93171,0 0.11293,2.199972 2.81878,0 0,12.079844 c -1e-5,1.497484 0.41999,2.742467 1.25998,3.734951 0.83998,0.992488 2.09997,1.507481 3.77995,1.544981 z"
         id="path3932"
         inkscape:connector-curvature="0"
         sodipodi:nodetypes="cccccccccccccccsscc" />
    </g>
    <path
       style="font-size:40px;font-style:normal;font-variant:normal;font-weight:normal;font-stretch:normal;text-align:start;line-height:125%;letter-spacing:0px;word-spacing:0px;writing-mode:lr-tb;text-anchor:start;fill:#000000;fill-opacity:1;stroke:#000000;stroke-width:2.00300002;stroke-miterlimit:4;stroke-opacity:1;stroke-dasharray:none;font-family:Levenim MT;-inkscape-font-specification:Levenim MT"
       d="m 105.65442,8.2082894 c 0,0.9123638 -0.30466,1.6812188 -0.91397,2.3065646 -0.60931,0.625347 -1.36254,0.938022 -2.25968,0.938022 -0.89715,0 -1.65132,-0.311724 -2.2625,-0.935172 C 99.60709,9.8942602 99.3015,9.1244552 99.3015,8.2082894 c 0,-0.859134 0.28036,-1.604228 0.84108,-2.235283 0.61678,-0.69567 1.39618,-1.043507 2.33819,-1.043514 0.93826,7e-6 1.71579,0.345943 2.33258,1.037812 0.56071,0.631054 0.84107,1.378049 0.84107,2.240985 z m -0.79621,0.01711 c -1e-5,-0.684264 -0.22897,-1.274447 -0.68688,-1.770548 -0.45792,-0.496093 -1.02144,-0.744141 -1.69056,-0.744147 -0.66913,6e-6 -1.23265,0.248054 -1.69057,0.744147 -0.45792,0.496101 -0.68687,1.086284 -0.68687,1.770548 0,0.44098 0.10279,0.8534418 0.30839,1.2373908 0.21307,0.395358 0.50278,0.6994788 0.86912,0.9123618 0.36632,0.212886 0.76631,0.319327 1.19993,0.319327 0.92704,0 1.61299,-0.40486 2.05783,-1.2145818 0.21306,-0.387752 0.3196,-0.8059168 0.31961,-1.2544978 z"
       id="path3111-4"
       inkscape:connector-curvature="0" />
    <path
       style="font-size:40px;font-style:normal;font-variant:normal;font-weight:normal;font-stretch:normal;text-align:start;line-height:125%;letter-spacing:0px;word-spacing:0px;writing-mode:lr-tb;text-anchor:start;fill:#000000;fill-opacity:1;stroke:#000000;stroke-width:2.00300002;stroke-miterlimit:4;stroke-opacity:1;stroke-dasharray:none;font-family:Levenim MT;-inkscape-font-specification:Levenim MT"
       d="m 255.60442,8.2082894 c 0,0.912364 -0.30466,1.681219 -0.91397,2.3065646 -0.60931,0.625347 -1.36254,0.938022 -2.25968,0.938022 -0.89715,0 -1.65132,-0.311724 -2.2625,-0.935172 -0.61118,-0.6234436 -0.91677,-1.3932486 -0.91677,-2.3094146 0,-0.859134 0.28036,-1.604228 0.84108,-2.235283 0.61678,-0.69567 1.39618,-1.043507 2.33819,-1.043514 0.93826,7e-6 1.71579,0.345943 2.33258,1.037812 0.56071,0.631054 0.84107,1.378049 0.84107,2.240985 z m -0.79621,0.01711 c -1e-5,-0.684264 -0.22897,-1.274447 -0.68688,-1.770548 -0.45792,-0.496093 -1.02144,-0.744141 -1.69056,-0.744147 -0.66913,6e-6 -1.23265,0.248054 -1.69057,0.744147 -0.45792,0.496101 -0.68687,1.086284 -0.68687,1.770548 0,0.44098 0.10279,0.853442 0.30839,1.237391 0.21307,0.395358 0.50278,0.6994786 0.86912,0.9123616 0.36632,0.212886 0.76631,0.319327 1.19993,0.319327 0.92704,0 1.61299,-0.40486 2.05783,-1.2145816 0.21306,-0.387752 0.3196,-0.805917 0.31961,-1.254498 z"
       id="path3111-4-8"
       inkscape:connector-curvature="0" />
  </g>
</svg>
